<svg width="43" height="40" viewBox="0 0 43 40" fill="none" xmlns="http://www.w3.org/2000/svg">
<path d="M37.5635 15.5989C37.5423 15.5989 37.5229 15.6047 37.5019 15.605C37.8914 14.704 38.1096 13.7117 38.1096 12.6678C38.1096 8.57435 34.791 5.25579 30.6976 5.25579C29.2509 5.25579 27.9054 5.67683 26.7645 6.39364C25.2213 2.64293 21.5348 4.6363e-07 17.2274 4.6363e-07C11.5316 4.6363e-07 6.91457 4.61704 6.91457 10.3128C6.91457 10.7432 6.94942 11.165 7.00069 11.5815C6.97165 11.5812 6.94361 11.5772 6.91457 11.5772C3.09591 11.5772 0 14.673 0 18.4919C0 22.3105 3.09591 25.4063 6.91457 25.4063H37.5635C40.2719 25.4063 42.4672 23.2109 42.4672 20.5026C42.4672 17.7943 40.2719 15.5989 37.5635 15.5989Z" fill="white"/>
<circle cx="19" cy="36" r="4" fill="white"/>
<circle cx="10" cy="33" r="4" fill="white"/>
<circle cx="29" cy="33" r="4" fill="white"/>
</svg>
